<?xml version="1.0" encoding="UTF-8" standalone="no"?>
<!DOCTYPE svg PUBLIC "-//W3C//DTD SVG 1.1//EN"
 "http://www.w3.org/Graphics/SVG/1.1/DTD/svg11.dtd">
<!-- Generated by graphviz version 2.44.1 (20200629.0846)
 -->
<!-- Title: dependencies Pages: 1 -->
<svg width="767pt" height="284pt"
 viewBox="0.00 0.00 767.00 284.00" xmlns="http://www.w3.org/2000/svg" xmlns:xlink="http://www.w3.org/1999/xlink">
<g id="graph0" class="graph" transform="scale(1 1) rotate(0) translate(4 280)">
<title>dependencies</title>
<polygon fill="white" stroke="transparent" points="-4,4 -4,-280 763,-280 763,4 -4,4"/>
<text text-anchor="start" x="358.51" y="-42.4" font-family="sans-serif" font-weight="bold" font-size="14.00">Legend</text>
<polygon fill="#ffffb3" stroke="transparent" points="145.5,-10 145.5,-30 165.5,-30 165.5,-10 145.5,-10"/>
<text text-anchor="start" x="169.13" y="-15.4" font-family="sans-serif" font-size="14.00"> &#160;Declarations</text>
<polygon fill="#8dd3c7" stroke="transparent" points="258.5,-10 258.5,-30 278.5,-30 278.5,-10 258.5,-10"/>
<text text-anchor="start" x="282.23" y="-15.4" font-family="sans-serif" font-size="14.00"> &#160;Module</text>
<polygon fill="#80b1d3" stroke="transparent" points="344.5,-10 344.5,-30 364.5,-30 364.5,-10 344.5,-10"/>
<text text-anchor="start" x="368.28" y="-15.4" font-family="sans-serif" font-size="14.00"> &#160;Bootstrap</text>
<polygon fill="#fdb462" stroke="transparent" points="441.5,-10 441.5,-30 461.5,-30 461.5,-10 441.5,-10"/>
<text text-anchor="start" x="465.17" y="-15.4" font-family="sans-serif" font-size="14.00"> &#160;Providers</text>
<polygon fill="#fb8072" stroke="transparent" points="537.5,-10 537.5,-30 557.5,-30 557.5,-10 537.5,-10"/>
<text text-anchor="start" x="561.23" y="-15.4" font-family="sans-serif" font-size="14.00"> &#160;Exports</text>
<g id="clust1" class="cluster">
<title>cluster_ButtonModule</title>
<polygon fill="none" stroke="black" stroke-dasharray="1,5" points="8,-70 8,-268 751,-268 751,-70 8,-70"/>
</g>
<g id="clust9" class="cluster">
<title>cluster_ButtonModule_exports</title>
<polygon fill="none" stroke="black" points="16,-208 16,-260 743,-260 743,-208 16,-208"/>
</g>
<g id="clust2" class="cluster">
<title>cluster_ButtonModule_declarations</title>
<polygon fill="none" stroke="black" points="25,-78 25,-130 734,-130 734,-78 25,-78"/>
</g>
<!-- AnimatedComponent -->
<g id="node1" class="node">
<title>AnimatedComponent</title>
<polygon fill="#ffffb3" stroke="black" points="726.04,-122 589.96,-122 589.96,-86 726.04,-86 726.04,-122"/>
<text text-anchor="middle" x="658" y="-99.8" font-family="Times,serif" font-size="14.00">AnimatedComponent</text>
</g>
<!-- ButtonModule -->
<g id="node6" class="node">
<title>ButtonModule</title>
<polygon fill="#8dd3c7" stroke="black" points="420.67,-187 417.67,-191 396.67,-191 393.67,-187 323.33,-187 323.33,-151 420.67,-151 420.67,-187"/>
<text text-anchor="middle" x="372" y="-164.8" font-family="Times,serif" font-size="14.00">ButtonModule</text>
</g>
<!-- AnimatedComponent&#45;&gt;ButtonModule -->
<g id="edge1" class="edge">
<title>AnimatedComponent&#45;&gt;ButtonModule</title>
<path fill="none" stroke="black" d="M682.51,-122.27C682.51,-140.56 682.51,-166 682.51,-166 682.51,-166 430.86,-166 430.86,-166"/>
<polygon fill="black" stroke="black" points="430.86,-162.5 420.86,-166 430.86,-169.5 430.86,-162.5"/>
</g>
<!-- DefaultComponent -->
<g id="node2" class="node">
<title>DefaultComponent</title>
<polygon fill="#ffffb3" stroke="black" points="571.81,-122 448.19,-122 448.19,-86 571.81,-86 571.81,-122"/>
<text text-anchor="middle" x="510" y="-99.8" font-family="Times,serif" font-size="14.00">DefaultComponent</text>
</g>
<!-- DefaultComponent&#45;&gt;ButtonModule -->
<g id="edge2" class="edge">
<title>DefaultComponent&#45;&gt;ButtonModule</title>
<path fill="none" stroke="black" d="M531.3,-122.01C531.3,-138.05 531.3,-159 531.3,-159 531.3,-159 431.1,-159 431.1,-159"/>
<polygon fill="black" stroke="black" points="431.1,-155.5 421.1,-159 431.1,-162.5 431.1,-155.5"/>
</g>
<!-- GroupComponent -->
<g id="node3" class="node">
<title>GroupComponent</title>
<polygon fill="#ffffb3" stroke="black" points="430.6,-122 313.4,-122 313.4,-86 430.6,-86 430.6,-122"/>
<text text-anchor="middle" x="372" y="-99.8" font-family="Times,serif" font-size="14.00">GroupComponent</text>
</g>
<!-- GroupComponent&#45;&gt;ButtonModule -->
<g id="edge3" class="edge">
<title>GroupComponent&#45;&gt;ButtonModule</title>
<path fill="none" stroke="black" d="M372,-122.11C372,-122.11 372,-140.99 372,-140.99"/>
<polygon fill="black" stroke="black" points="368.5,-140.99 372,-150.99 375.5,-140.99 368.5,-140.99"/>
</g>
<!-- IconComponent -->
<g id="node4" class="node">
<title>IconComponent</title>
<polygon fill="#ffffb3" stroke="black" points="295.21,-122 188.79,-122 188.79,-86 295.21,-86 295.21,-122"/>
<text text-anchor="middle" x="242" y="-99.8" font-family="Times,serif" font-size="14.00">IconComponent</text>
</g>
<!-- IconComponent&#45;&gt;ButtonModule -->
<g id="edge4" class="edge">
<title>IconComponent&#45;&gt;ButtonModule</title>
<path fill="none" stroke="black" d="M258.87,-122.01C258.87,-138.05 258.87,-159 258.87,-159 258.87,-159 313.04,-159 313.04,-159"/>
<polygon fill="black" stroke="black" points="313.04,-162.5 323.04,-159 313.04,-155.5 313.04,-162.5"/>
</g>
<!-- IconLabelComponent -->
<g id="node5" class="node">
<title>IconLabelComponent</title>
<polygon fill="#ffffb3" stroke="black" points="171.08,-122 32.92,-122 32.92,-86 171.08,-86 171.08,-122"/>
<text text-anchor="middle" x="102" y="-99.8" font-family="Times,serif" font-size="14.00">IconLabelComponent</text>
</g>
<!-- IconLabelComponent&#45;&gt;ButtonModule -->
<g id="edge5" class="edge">
<title>IconLabelComponent&#45;&gt;ButtonModule</title>
<path fill="none" stroke="black" d="M121.51,-122.27C121.51,-140.56 121.51,-166 121.51,-166 121.51,-166 313.11,-166 313.11,-166"/>
<polygon fill="black" stroke="black" points="313.11,-169.5 323.11,-166 313.11,-162.5 313.11,-169.5"/>
</g>
<!-- AnimatedComponent  -->
<g id="node7" class="node">
<title>AnimatedComponent </title>
<polygon fill="#fb8072" stroke="black" points="735.04,-252 594.96,-252 594.96,-216 735.04,-216 735.04,-252"/>
<text text-anchor="middle" x="665" y="-229.8" font-family="Times,serif" font-size="14.00">AnimatedComponent </text>
</g>
<!-- ButtonModule&#45;&gt;AnimatedComponent  -->
<g id="edge6" class="edge">
<title>ButtonModule&#45;&gt;AnimatedComponent </title>
<path fill="none" stroke="black" stroke-dasharray="5,2" d="M420.92,-173C497.93,-173 638.74,-173 638.74,-173 638.74,-173 638.74,-205.7 638.74,-205.7"/>
<polygon fill="black" stroke="black" points="635.24,-205.7 638.74,-215.7 642.24,-205.7 635.24,-205.7"/>
</g>
<!-- DefaultComponent  -->
<g id="node8" class="node">
<title>DefaultComponent </title>
<polygon fill="#fb8072" stroke="black" points="577.31,-252 450.69,-252 450.69,-216 577.31,-216 577.31,-252"/>
<text text-anchor="middle" x="514" y="-229.8" font-family="Times,serif" font-size="14.00">DefaultComponent </text>
</g>
<!-- ButtonModule&#45;&gt;DefaultComponent  -->
<g id="edge7" class="edge">
<title>ButtonModule&#45;&gt;DefaultComponent </title>
<path fill="none" stroke="black" stroke-dasharray="5,2" d="M420.72,-180C453.57,-180 490.95,-180 490.95,-180 490.95,-180 490.95,-205.72 490.95,-205.72"/>
<polygon fill="black" stroke="black" points="487.45,-205.72 490.95,-215.72 494.45,-205.72 487.45,-205.72"/>
</g>
<!-- GroupComponent  -->
<g id="node9" class="node">
<title>GroupComponent </title>
<polygon fill="#fb8072" stroke="black" points="432.1,-252 311.9,-252 311.9,-216 432.1,-216 432.1,-252"/>
<text text-anchor="middle" x="372" y="-229.8" font-family="Times,serif" font-size="14.00">GroupComponent </text>
</g>
<!-- ButtonModule&#45;&gt;GroupComponent  -->
<g id="edge8" class="edge">
<title>ButtonModule&#45;&gt;GroupComponent </title>
<path fill="none" stroke="black" stroke-dasharray="5,2" d="M372,-187.11C372,-187.11 372,-205.99 372,-205.99"/>
<polygon fill="black" stroke="black" points="368.5,-205.99 372,-215.99 375.5,-205.99 368.5,-205.99"/>
</g>
<!-- IconComponent  -->
<g id="node10" class="node">
<title>IconComponent </title>
<polygon fill="#fb8072" stroke="black" points="293.71,-252 184.29,-252 184.29,-216 293.71,-216 293.71,-252"/>
<text text-anchor="middle" x="239" y="-229.8" font-family="Times,serif" font-size="14.00">IconComponent </text>
</g>
<!-- ButtonModule&#45;&gt;IconComponent  -->
<g id="edge9" class="edge">
<title>ButtonModule&#45;&gt;IconComponent </title>
<path fill="none" stroke="black" stroke-dasharray="5,2" d="M323.09,-180C279.95,-180 223.88,-180 223.88,-180 223.88,-180 223.88,-205.72 223.88,-205.72"/>
<polygon fill="black" stroke="black" points="220.38,-205.72 223.88,-215.72 227.38,-205.72 220.38,-205.72"/>
</g>
<!-- IconLabelComponent  -->
<g id="node11" class="node">
<title>IconLabelComponent </title>
<polygon fill="#fb8072" stroke="black" points="165.58,-252 24.42,-252 24.42,-216 165.58,-216 165.58,-252"/>
<text text-anchor="middle" x="95" y="-229.8" font-family="Times,serif" font-size="14.00">IconLabelComponent </text>
</g>
<!-- ButtonModule&#45;&gt;IconLabelComponent  -->
<g id="edge10" class="edge">
<title>ButtonModule&#45;&gt;IconLabelComponent </title>
<path fill="none" stroke="black" stroke-dasharray="5,2" d="M323.33,-173C239.6,-173 77.24,-173 77.24,-173 77.24,-173 77.24,-205.7 77.24,-205.7"/>
<polygon fill="black" stroke="black" points="73.74,-205.7 77.24,-215.7 80.74,-205.7 73.74,-205.7"/>
</g>
</g>
</svg>
