<?xml version="1.0" encoding="UTF-8" standalone="no"?>
<!DOCTYPE svg PUBLIC "-//W3C//DTD SVG 1.1//EN"
 "http://www.w3.org/Graphics/SVG/1.1/DTD/svg11.dtd">
<!-- Generated by graphviz version 2.44.1 (20200629.0846)
 -->
<!-- Title: dependencies Pages: 1 -->
<svg width="504pt" height="211pt"
 viewBox="0.00 0.00 504.00 211.00" xmlns="http://www.w3.org/2000/svg" xmlns:xlink="http://www.w3.org/1999/xlink">
<g id="graph0" class="graph" transform="scale(1 1) rotate(0) translate(4 207)">
<title>dependencies</title>
<polygon fill="white" stroke="transparent" points="-4,4 -4,-207 500,-207 500,4 -4,4"/>
<text text-anchor="start" x="227.01" y="-42.4" font-family="sans-serif" font-weight="bold" font-size="14.00">Legend</text>
<polygon fill="#ffffb3" stroke="transparent" points="14,-10 14,-30 34,-30 34,-10 14,-10"/>
<text text-anchor="start" x="37.63" y="-15.4" font-family="sans-serif" font-size="14.00"> &#160;Declarations</text>
<polygon fill="#8dd3c7" stroke="transparent" points="127,-10 127,-30 147,-30 147,-10 127,-10"/>
<text text-anchor="start" x="150.73" y="-15.4" font-family="sans-serif" font-size="14.00"> &#160;Module</text>
<polygon fill="#80b1d3" stroke="transparent" points="213,-10 213,-30 233,-30 233,-10 213,-10"/>
<text text-anchor="start" x="236.78" y="-15.4" font-family="sans-serif" font-size="14.00"> &#160;Bootstrap</text>
<polygon fill="#fdb462" stroke="transparent" points="310,-10 310,-30 330,-30 330,-10 310,-10"/>
<text text-anchor="start" x="333.67" y="-15.4" font-family="sans-serif" font-size="14.00"> &#160;Providers</text>
<polygon fill="#fb8072" stroke="transparent" points="406,-10 406,-30 426,-30 426,-10 406,-10"/>
<text text-anchor="start" x="429.73" y="-15.4" font-family="sans-serif" font-size="14.00"> &#160;Exports</text>
<g id="clust1" class="cluster">
<title>cluster_DirectivesModule</title>
<polygon fill="none" stroke="black" stroke-dasharray="1,5" points="49,-70 49,-195 447,-195 447,-70 49,-70"/>
</g>
<g id="clust2" class="cluster">
<title>cluster_DirectivesModule_declarations</title>
<polygon fill="none" stroke="black" points="57,-78 57,-130 439,-130 439,-78 57,-78"/>
</g>
<!-- FilterKeyDirective -->
<g id="node1" class="node">
<title>FilterKeyDirective</title>
<polygon fill="#ffffb3" stroke="black" points="430.73,-122 309.27,-122 309.27,-86 430.73,-86 430.73,-122"/>
<text text-anchor="middle" x="370" y="-99.8" font-family="Times,serif" font-size="14.00">FilterKeyDirective</text>
</g>
<!-- DirectivesModule -->
<g id="node4" class="node">
<title>DirectivesModule</title>
<polygon fill="#8dd3c7" stroke="black" points="300.58,-187 297.58,-191 276.58,-191 273.58,-187 183.42,-187 183.42,-151 300.58,-151 300.58,-187"/>
<text text-anchor="middle" x="242" y="-164.8" font-family="Times,serif" font-size="14.00">DirectivesModule</text>
</g>
<!-- FilterKeyDirective&#45;&gt;DirectivesModule -->
<g id="edge1" class="edge">
<title>FilterKeyDirective&#45;&gt;DirectivesModule</title>
<path fill="none" stroke="black" d="M308.94,-104C301.28,-104 296.07,-104 296.07,-104 296.07,-104 296.07,-140.89 296.07,-140.89"/>
<polygon fill="black" stroke="black" points="292.57,-140.89 296.07,-150.89 299.57,-140.89 292.57,-140.89"/>
</g>
<!-- MaskDirective -->
<g id="node2" class="node">
<title>MaskDirective</title>
<polygon fill="#ffffb3" stroke="black" points="291.69,-122 192.31,-122 192.31,-86 291.69,-86 291.69,-122"/>
<text text-anchor="middle" x="242" y="-99.8" font-family="Times,serif" font-size="14.00">MaskDirective</text>
</g>
<!-- MaskDirective&#45;&gt;DirectivesModule -->
<g id="edge2" class="edge">
<title>MaskDirective&#45;&gt;DirectivesModule</title>
<path fill="none" stroke="black" d="M242,-122.11C242,-122.11 242,-140.99 242,-140.99"/>
<polygon fill="black" stroke="black" points="238.5,-140.99 242,-150.99 245.5,-140.99 238.5,-140.99"/>
</g>
<!-- TooltipDirective -->
<g id="node3" class="node">
<title>TooltipDirective</title>
<polygon fill="#ffffb3" stroke="black" points="174.81,-122 65.19,-122 65.19,-86 174.81,-86 174.81,-122"/>
<text text-anchor="middle" x="120" y="-99.8" font-family="Times,serif" font-size="14.00">TooltipDirective</text>
</g>
<!-- TooltipDirective&#45;&gt;DirectivesModule -->
<g id="edge3" class="edge">
<title>TooltipDirective&#45;&gt;DirectivesModule</title>
<path fill="none" stroke="black" d="M174.84,-104C182.56,-104 187.93,-104 187.93,-104 187.93,-104 187.93,-140.89 187.93,-140.89"/>
<polygon fill="black" stroke="black" points="184.43,-140.89 187.93,-150.89 191.43,-140.89 184.43,-140.89"/>
</g>
</g>
</svg>
