<?xml version="1.0" encoding="UTF-8" standalone="no"?>
<!DOCTYPE svg PUBLIC "-//W3C//DTD SVG 1.1//EN"
 "http://www.w3.org/Graphics/SVG/1.1/DTD/svg11.dtd">
<!-- Generated by graphviz version 2.44.1 (20200629.0846)
 -->
<!-- Title: dependencies Pages: 1 -->
<svg width="2915pt" height="290pt"
 viewBox="0.00 0.00 2915.00 290.00" xmlns="http://www.w3.org/2000/svg" xmlns:xlink="http://www.w3.org/1999/xlink">
<g id="graph0" class="graph" transform="scale(1 1) rotate(0) translate(4 286)">
<title>dependencies</title>
<polygon fill="white" stroke="transparent" points="-4,4 -4,-286 2911,-286 2911,4 -4,4"/>
<text text-anchor="start" x="1432.51" y="-42.4" font-family="sans-serif" font-weight="bold" font-size="14.00">Legend</text>
<polygon fill="#ffffb3" stroke="transparent" points="1219.5,-10 1219.5,-30 1239.5,-30 1239.5,-10 1219.5,-10"/>
<text text-anchor="start" x="1243.13" y="-15.4" font-family="sans-serif" font-size="14.00"> &#160;Declarations</text>
<polygon fill="#8dd3c7" stroke="transparent" points="1332.5,-10 1332.5,-30 1352.5,-30 1352.5,-10 1332.5,-10"/>
<text text-anchor="start" x="1356.23" y="-15.4" font-family="sans-serif" font-size="14.00"> &#160;Module</text>
<polygon fill="#80b1d3" stroke="transparent" points="1418.5,-10 1418.5,-30 1438.5,-30 1438.5,-10 1418.5,-10"/>
<text text-anchor="start" x="1442.28" y="-15.4" font-family="sans-serif" font-size="14.00"> &#160;Bootstrap</text>
<polygon fill="#fdb462" stroke="transparent" points="1515.5,-10 1515.5,-30 1535.5,-30 1535.5,-10 1515.5,-10"/>
<text text-anchor="start" x="1539.17" y="-15.4" font-family="sans-serif" font-size="14.00"> &#160;Providers</text>
<polygon fill="#fb8072" stroke="transparent" points="1611.5,-10 1611.5,-30 1631.5,-30 1631.5,-10 1611.5,-10"/>
<text text-anchor="start" x="1635.23" y="-15.4" font-family="sans-serif" font-size="14.00"> &#160;Exports</text>
<g id="clust7" class="cluster">
<title>cluster_AppModule</title>
<polygon fill="none" stroke="black" stroke-dasharray="1,5" points="8,-70 8,-274 534,-274 534,-70 8,-70"/>
</g>
<g id="clust8" class="cluster">
<title>cluster_AppModule_declarations</title>
<polygon fill="none" stroke="black" points="16,-78 16,-130 138,-130 138,-78 16,-78"/>
</g>
<g id="clust10" class="cluster">
<title>cluster_AppModule_imports</title>
<polygon fill="none" stroke="black" points="146,-78 146,-130 526,-130 526,-78 146,-78"/>
</g>
<g id="clust12" class="cluster">
<title>cluster_AppModule_bootstrap</title>
<polygon fill="none" stroke="black" points="221,-214 221,-266 345,-266 345,-214 221,-214"/>
</g>
<g id="clust62" class="cluster">
<title>cluster_ButtonModule</title>
<polygon fill="none" stroke="black" stroke-dasharray="1,5" points="542,-138 542,-206 2002,-206 2002,-138 542,-138"/>
</g>
<g id="clust63" class="cluster">
<title>cluster_ButtonModule_declarations</title>
<polygon fill="none" stroke="black" points="1285,-146 1285,-198 1994,-198 1994,-146 1285,-146"/>
</g>
<g id="clust70" class="cluster">
<title>cluster_ButtonModule_exports</title>
<polygon fill="none" stroke="black" points="550,-146 550,-198 1277,-198 1277,-146 550,-146"/>
</g>
<g id="clust151" class="cluster">
<title>cluster_DirectivesModule</title>
<polygon fill="none" stroke="black" stroke-dasharray="1,5" points="2326,-70 2326,-198 2725,-198 2725,-70 2326,-70"/>
</g>
<g id="clust152" class="cluster">
<title>cluster_DirectivesModule_declarations</title>
<polygon fill="none" stroke="black" points="2334,-78 2334,-130 2717,-130 2717,-78 2334,-78"/>
</g>
<g id="clust166" class="cluster">
<title>cluster_DocsModule</title>
<polygon fill="none" stroke="black" stroke-dasharray="1,5" points="2733,-70 2733,-198 2899,-198 2899,-70 2733,-70"/>
</g>
<g id="clust168" class="cluster">
<title>cluster_DocsModule_imports</title>
<polygon fill="none" stroke="black" points="2741,-78 2741,-130 2891,-130 2891,-78 2741,-78"/>
</g>
<g id="clust424" class="cluster">
<title>cluster_SidebarModule</title>
<polygon fill="none" stroke="black" stroke-dasharray="1,5" points="2010,-138 2010,-206 2318,-206 2318,-138 2010,-138"/>
</g>
<g id="clust425" class="cluster">
<title>cluster_SidebarModule_declarations</title>
<polygon fill="none" stroke="black" points="2170,-146 2170,-198 2310,-198 2310,-146 2170,-146"/>
</g>
<g id="clust428" class="cluster">
<title>cluster_SidebarModule_exports</title>
<polygon fill="none" stroke="black" points="2018,-146 2018,-198 2162,-198 2162,-146 2018,-146"/>
</g>
<!-- AppComponent -->
<g id="node1" class="node">
<title>AppComponent</title>
<polygon fill="#ffffb3" stroke="black" points="129.94,-122 24.06,-122 24.06,-86 129.94,-86 129.94,-122"/>
<text text-anchor="middle" x="77" y="-99.8" font-family="Times,serif" font-size="14.00">AppComponent</text>
</g>
<!-- AppModule -->
<g id="node2" class="node">
<title>AppModule</title>
<polygon fill="#8dd3c7" stroke="black" points="324.66,-190 321.66,-194 300.66,-194 297.66,-190 241.34,-190 241.34,-154 324.66,-154 324.66,-190"/>
<text text-anchor="middle" x="283" y="-167.8" font-family="Times,serif" font-size="14.00">AppModule</text>
</g>
<!-- AppComponent&#45;&gt;AppModule -->
<g id="edge1" class="edge">
<title>AppComponent&#45;&gt;AppModule</title>
<path fill="none" stroke="black" d="M77,-122.22C77,-142.37 77,-172 77,-172 77,-172 231.31,-172 231.31,-172"/>
<polygon fill="black" stroke="black" points="231.31,-175.5 241.31,-172 231.31,-168.5 231.31,-175.5"/>
</g>
<!-- AppComponent  -->
<g id="node6" class="node">
<title>AppComponent </title>
<polygon fill="#80b1d3" stroke="black" points="337.44,-258 228.56,-258 228.56,-222 337.44,-222 337.44,-258"/>
<text text-anchor="middle" x="283" y="-235.8" font-family="Times,serif" font-size="14.00">AppComponent </text>
</g>
<!-- AppModule&#45;&gt;AppComponent  -->
<g id="edge5" class="edge">
<title>AppModule&#45;&gt;AppComponent </title>
<path fill="none" stroke="black" stroke-dasharray="1,5" d="M283,-190.22C283,-190.22 283,-211.73 283,-211.73"/>
<polygon fill="black" stroke="black" points="279.5,-211.73 283,-221.73 286.5,-211.73 279.5,-211.73"/>
</g>
<!-- AppRoutingModule -->
<g id="node3" class="node">
<title>AppRoutingModule</title>
<polygon fill="#8dd3c7" stroke="black" points="282.27,-122 279.27,-126 258.27,-126 255.27,-122 153.73,-122 153.73,-86 282.27,-86 282.27,-122"/>
<text text-anchor="middle" x="218" y="-99.8" font-family="Times,serif" font-size="14.00">AppRoutingModule</text>
</g>
<!-- AppRoutingModule&#45;&gt;AppModule -->
<g id="edge2" class="edge">
<title>AppRoutingModule&#45;&gt;AppModule</title>
<path fill="none" stroke="black" d="M261.78,-122.22C261.78,-122.22 261.78,-143.73 261.78,-143.73"/>
<polygon fill="black" stroke="black" points="258.28,-143.73 261.78,-153.73 265.28,-143.73 258.28,-143.73"/>
</g>
<!-- ButtonModule -->
<g id="node4" class="node">
<title>ButtonModule</title>
<polygon fill="#8dd3c7" stroke="black" points="397.67,-122 394.67,-126 373.67,-126 370.67,-122 300.33,-122 300.33,-86 397.67,-86 397.67,-122"/>
<text text-anchor="middle" x="349" y="-99.8" font-family="Times,serif" font-size="14.00">ButtonModule</text>
</g>
<!-- ButtonModule&#45;&gt;AppModule -->
<g id="edge3" class="edge">
<title>ButtonModule&#45;&gt;AppModule</title>
<path fill="none" stroke="black" d="M312.5,-122.22C312.5,-122.22 312.5,-143.73 312.5,-143.73"/>
<polygon fill="black" stroke="black" points="309,-143.73 312.5,-153.73 316,-143.73 309,-143.73"/>
</g>
<!-- AnimatedComponent  -->
<g id="node12" class="node">
<title>AnimatedComponent </title>
<polygon fill="#fb8072" stroke="black" points="1269.04,-190 1128.96,-190 1128.96,-154 1269.04,-154 1269.04,-190"/>
<text text-anchor="middle" x="1199" y="-167.8" font-family="Times,serif" font-size="14.00">AnimatedComponent </text>
</g>
<!-- ButtonModule&#45;&gt;AnimatedComponent  -->
<g id="edge11" class="edge">
<title>ButtonModule&#45;&gt;AnimatedComponent </title>
<path fill="none" stroke="black" stroke-dasharray="5,2" d="M386.86,-122.11C386.86,-131.9 386.86,-142 386.86,-142 386.86,-142 1199,-142 1199,-142 1199,-142 1199,-143.86 1199,-143.86"/>
<polygon fill="black" stroke="black" points="1195.5,-143.86 1199,-153.86 1202.5,-143.86 1195.5,-143.86"/>
</g>
<!-- DefaultComponent  -->
<g id="node13" class="node">
<title>DefaultComponent </title>
<polygon fill="#fb8072" stroke="black" points="1111.31,-190 984.69,-190 984.69,-154 1111.31,-154 1111.31,-190"/>
<text text-anchor="middle" x="1048" y="-167.8" font-family="Times,serif" font-size="14.00">DefaultComponent </text>
</g>
<!-- ButtonModule&#45;&gt;DefaultComponent  -->
<g id="edge12" class="edge">
<title>ButtonModule&#45;&gt;DefaultComponent </title>
<path fill="none" stroke="black" stroke-dasharray="5,2" d="M381.37,-122.1C381.37,-133.09 381.37,-145 381.37,-145 381.37,-145 1048,-145 1048,-145 1048,-145 1048,-145.88 1048,-145.88"/>
<polygon fill="black" stroke="black" points="1044.5,-143.84 1048,-153.84 1051.5,-143.84 1044.5,-143.84"/>
</g>
<!-- GroupComponent  -->
<g id="node14" class="node">
<title>GroupComponent </title>
<polygon fill="#fb8072" stroke="black" points="966.1,-190 845.9,-190 845.9,-154 966.1,-154 966.1,-190"/>
<text text-anchor="middle" x="906" y="-167.8" font-family="Times,serif" font-size="14.00">GroupComponent </text>
</g>
<!-- ButtonModule&#45;&gt;GroupComponent  -->
<g id="edge13" class="edge">
<title>ButtonModule&#45;&gt;GroupComponent </title>
<path fill="none" stroke="black" stroke-dasharray="5,2" d="M375.88,-122.15C375.88,-134.27 375.88,-148 375.88,-148 375.88,-148 906,-148 906,-148 906,-148 906,-148.58 906,-148.58"/>
<polygon fill="black" stroke="black" points="902.5,-143.81 906,-153.81 909.5,-143.81 902.5,-143.81"/>
</g>
<!-- IconComponent  -->
<g id="node15" class="node">
<title>IconComponent </title>
<polygon fill="#fb8072" stroke="black" points="827.71,-190 718.29,-190 718.29,-154 827.71,-154 827.71,-190"/>
<text text-anchor="middle" x="773" y="-167.8" font-family="Times,serif" font-size="14.00">IconComponent </text>
</g>
<!-- ButtonModule&#45;&gt;IconComponent  -->
<g id="edge14" class="edge">
<title>ButtonModule&#45;&gt;IconComponent </title>
<path fill="none" stroke="black" stroke-dasharray="5,2" d="M370.4,-122.04C370.4,-135.29 370.4,-151 370.4,-151 370.4,-151 773,-151 773,-151 773,-151 773,-151.29 773,-151.29"/>
<polygon fill="black" stroke="black" points="769.5,-143.92 773,-153.92 776.5,-143.92 769.5,-143.92"/>
</g>
<!-- IconLabelComponent  -->
<g id="node16" class="node">
<title>IconLabelComponent </title>
<polygon fill="#fb8072" stroke="black" points="699.58,-190 558.42,-190 558.42,-154 699.58,-154 699.58,-190"/>
<text text-anchor="middle" x="629" y="-167.8" font-family="Times,serif" font-size="14.00">IconLabelComponent </text>
</g>
<!-- ButtonModule&#45;&gt;IconLabelComponent  -->
<g id="edge15" class="edge">
<title>ButtonModule&#45;&gt;IconLabelComponent </title>
<path fill="none" stroke="black" stroke-dasharray="5,2" d="M392.35,-122.27C392.35,-140.56 392.35,-166 392.35,-166 392.35,-166 548.32,-166 548.32,-166"/>
<polygon fill="black" stroke="black" points="548.32,-169.5 558.32,-166 548.32,-162.5 548.32,-169.5"/>
</g>
<!-- SidebarModule -->
<g id="node5" class="node">
<title>SidebarModule</title>
<polygon fill="#8dd3c7" stroke="black" points="518.31,-122 515.31,-126 494.31,-126 491.31,-122 415.69,-122 415.69,-86 518.31,-86 518.31,-122"/>
<text text-anchor="middle" x="467" y="-99.8" font-family="Times,serif" font-size="14.00">SidebarModule</text>
</g>
<!-- SidebarModule&#45;&gt;AppModule -->
<g id="edge4" class="edge">
<title>SidebarModule&#45;&gt;AppModule</title>
<path fill="none" stroke="black" d="M467,-122.29C467,-144.21 467,-178 467,-178 467,-178 334.75,-178 334.75,-178"/>
<polygon fill="black" stroke="black" points="334.75,-174.5 324.75,-178 334.75,-181.5 334.75,-174.5"/>
</g>
<!-- SidebarComponent  -->
<g id="node24" class="node">
<title>SidebarComponent </title>
<polygon fill="#fb8072" stroke="black" points="2153.6,-190 2026.4,-190 2026.4,-154 2153.6,-154 2153.6,-190"/>
<text text-anchor="middle" x="2090" y="-167.8" font-family="Times,serif" font-size="14.00">SidebarComponent </text>
</g>
<!-- SidebarModule&#45;&gt;SidebarComponent  -->
<g id="edge21" class="edge">
<title>SidebarModule&#45;&gt;SidebarComponent </title>
<path fill="none" stroke="black" stroke-dasharray="5,2" d="M518.25,-110C794.13,-110 2090,-110 2090,-110 2090,-110 2090,-143.73 2090,-143.73"/>
<polygon fill="black" stroke="black" points="2086.5,-143.73 2090,-153.73 2093.5,-143.73 2086.5,-143.73"/>
</g>
<!-- AnimatedComponent -->
<g id="node7" class="node">
<title>AnimatedComponent</title>
<polygon fill="#ffffb3" stroke="black" points="1986.04,-190 1849.96,-190 1849.96,-154 1986.04,-154 1986.04,-190"/>
<text text-anchor="middle" x="1918" y="-167.8" font-family="Times,serif" font-size="14.00">AnimatedComponent</text>
</g>
<!-- AnimatedComponent&#45;&gt;ButtonModule -->
<g id="edge6" class="edge">
<title>AnimatedComponent&#45;&gt;ButtonModule</title>
<path fill="none" stroke="black" d="M1918,-153.82C1918,-140.96 1918,-126 1918,-126 1918,-126 364.91,-126 364.91,-126 364.91,-126 364.91,-125.62 364.91,-125.62"/>
<polygon fill="black" stroke="black" points="368.41,-132.17 364.91,-122.17 361.41,-132.17 368.41,-132.17"/>
</g>
<!-- DefaultComponent -->
<g id="node8" class="node">
<title>DefaultComponent</title>
<polygon fill="#ffffb3" stroke="black" points="1831.81,-190 1708.19,-190 1708.19,-154 1831.81,-154 1831.81,-190"/>
<text text-anchor="middle" x="1770" y="-167.8" font-family="Times,serif" font-size="14.00">DefaultComponent</text>
</g>
<!-- DefaultComponent&#45;&gt;ButtonModule -->
<g id="edge7" class="edge">
<title>DefaultComponent&#45;&gt;ButtonModule</title>
<path fill="none" stroke="black" d="M1770,-153.51C1770,-141.86 1770,-129 1770,-129 1770,-129 359.42,-129 359.42,-129 359.42,-129 359.42,-128.32 359.42,-128.32"/>
<polygon fill="black" stroke="black" points="362.92,-132.17 359.42,-122.17 355.92,-132.17 362.92,-132.17"/>
</g>
<!-- GroupComponent -->
<g id="node9" class="node">
<title>GroupComponent</title>
<polygon fill="#ffffb3" stroke="black" points="1690.6,-190 1573.4,-190 1573.4,-154 1690.6,-154 1690.6,-190"/>
<text text-anchor="middle" x="1632" y="-167.8" font-family="Times,serif" font-size="14.00">GroupComponent</text>
</g>
<!-- GroupComponent&#45;&gt;ButtonModule -->
<g id="edge8" class="edge">
<title>GroupComponent&#45;&gt;ButtonModule</title>
<path fill="none" stroke="black" d="M1632,-153.87C1632,-143.29 1632,-132 1632,-132 1632,-132 353.93,-132 353.93,-132 353.93,-132 353.93,-131.02 353.93,-131.02"/>
<polygon fill="black" stroke="black" points="357.43,-132.21 353.93,-122.21 350.43,-132.21 357.43,-132.21"/>
</g>
<!-- IconComponent -->
<g id="node10" class="node">
<title>IconComponent</title>
<polygon fill="#ffffb3" stroke="black" points="1555.21,-190 1448.79,-190 1448.79,-154 1555.21,-154 1555.21,-190"/>
<text text-anchor="middle" x="1502" y="-167.8" font-family="Times,serif" font-size="14.00">IconComponent</text>
</g>
<!-- IconComponent&#45;&gt;ButtonModule -->
<g id="edge9" class="edge">
<title>IconComponent&#45;&gt;ButtonModule</title>
<path fill="none" stroke="black" d="M1502,-153.93C1502,-144.54 1502,-135 1502,-135 1502,-135 348.44,-135 348.44,-135 348.44,-135 348.44,-132.03 348.44,-132.03"/>
<polygon fill="black" stroke="black" points="351.94,-132.03 348.44,-122.03 344.94,-132.03 351.94,-132.03"/>
</g>
<!-- IconLabelComponent -->
<g id="node11" class="node">
<title>IconLabelComponent</title>
<polygon fill="#ffffb3" stroke="black" points="1431.08,-190 1292.92,-190 1292.92,-154 1431.08,-154 1431.08,-190"/>
<text text-anchor="middle" x="1362" y="-167.8" font-family="Times,serif" font-size="14.00">IconLabelComponent</text>
</g>
<!-- IconLabelComponent&#45;&gt;ButtonModule -->
<g id="edge10" class="edge">
<title>IconLabelComponent&#45;&gt;ButtonModule</title>
<path fill="none" stroke="black" d="M1362,-153.81C1362,-145.72 1362,-138 1362,-138 1362,-138 342.96,-138 342.96,-138 342.96,-138 342.96,-132.19 342.96,-132.19"/>
<polygon fill="black" stroke="black" points="346.46,-132.19 342.96,-122.19 339.46,-132.19 346.46,-132.19"/>
</g>
<!-- FilterKeyDirective -->
<g id="node17" class="node">
<title>FilterKeyDirective</title>
<polygon fill="#ffffb3" stroke="black" points="2580.73,-122 2459.27,-122 2459.27,-86 2580.73,-86 2580.73,-122"/>
<text text-anchor="middle" x="2520" y="-99.8" font-family="Times,serif" font-size="14.00">FilterKeyDirective</text>
</g>
<!-- DirectivesModule -->
<g id="node20" class="node">
<title>DirectivesModule</title>
<polygon fill="#8dd3c7" stroke="black" points="2578.58,-190 2575.58,-194 2554.58,-194 2551.58,-190 2461.42,-190 2461.42,-154 2578.58,-154 2578.58,-190"/>
<text text-anchor="middle" x="2520" y="-167.8" font-family="Times,serif" font-size="14.00">DirectivesModule</text>
</g>
<!-- FilterKeyDirective&#45;&gt;DirectivesModule -->
<g id="edge16" class="edge">
<title>FilterKeyDirective&#45;&gt;DirectivesModule</title>
<path fill="none" stroke="black" d="M2520,-122.22C2520,-122.22 2520,-143.73 2520,-143.73"/>
<polygon fill="black" stroke="black" points="2516.5,-143.73 2520,-153.73 2523.5,-143.73 2516.5,-143.73"/>
</g>
<!-- MaskDirective -->
<g id="node18" class="node">
<title>MaskDirective</title>
<polygon fill="#ffffb3" stroke="black" points="2441.69,-122 2342.31,-122 2342.31,-86 2441.69,-86 2441.69,-122"/>
<text text-anchor="middle" x="2392" y="-99.8" font-family="Times,serif" font-size="14.00">MaskDirective</text>
</g>
<!-- MaskDirective&#45;&gt;DirectivesModule -->
<g id="edge17" class="edge">
<title>MaskDirective&#45;&gt;DirectivesModule</title>
<path fill="none" stroke="black" d="M2392,-122.22C2392,-142.37 2392,-172 2392,-172 2392,-172 2451.24,-172 2451.24,-172"/>
<polygon fill="black" stroke="black" points="2451.24,-175.5 2461.24,-172 2451.24,-168.5 2451.24,-175.5"/>
</g>
<!-- TooltipDirective -->
<g id="node19" class="node">
<title>TooltipDirective</title>
<polygon fill="#ffffb3" stroke="black" points="2708.81,-122 2599.19,-122 2599.19,-86 2708.81,-86 2708.81,-122"/>
<text text-anchor="middle" x="2654" y="-99.8" font-family="Times,serif" font-size="14.00">TooltipDirective</text>
</g>
<!-- TooltipDirective&#45;&gt;DirectivesModule -->
<g id="edge18" class="edge">
<title>TooltipDirective&#45;&gt;DirectivesModule</title>
<path fill="none" stroke="black" d="M2654,-122.22C2654,-142.37 2654,-172 2654,-172 2654,-172 2588.77,-172 2588.77,-172"/>
<polygon fill="black" stroke="black" points="2588.77,-168.5 2578.77,-172 2588.77,-175.5 2588.77,-168.5"/>
</g>
<!-- DocsRoutingModule -->
<g id="node21" class="node">
<title>DocsRoutingModule</title>
<polygon fill="#8dd3c7" stroke="black" points="2882.93,-122 2879.93,-126 2858.93,-126 2855.93,-122 2749.07,-122 2749.07,-86 2882.93,-86 2882.93,-122"/>
<text text-anchor="middle" x="2816" y="-99.8" font-family="Times,serif" font-size="14.00">DocsRoutingModule</text>
</g>
<!-- DocsModule -->
<g id="node22" class="node">
<title>DocsModule</title>
<polygon fill="#8dd3c7" stroke="black" points="2860.32,-190 2857.32,-194 2836.32,-194 2833.32,-190 2771.68,-190 2771.68,-154 2860.32,-154 2860.32,-190"/>
<text text-anchor="middle" x="2816" y="-167.8" font-family="Times,serif" font-size="14.00">DocsModule</text>
</g>
<!-- DocsRoutingModule&#45;&gt;DocsModule -->
<g id="edge19" class="edge">
<title>DocsRoutingModule&#45;&gt;DocsModule</title>
<path fill="none" stroke="black" d="M2816,-122.22C2816,-122.22 2816,-143.73 2816,-143.73"/>
<polygon fill="black" stroke="black" points="2812.5,-143.73 2816,-153.73 2819.5,-143.73 2812.5,-143.73"/>
</g>
<!-- SidebarComponent -->
<g id="node23" class="node">
<title>SidebarComponent</title>
<polygon fill="#ffffb3" stroke="black" points="2302.1,-190 2177.9,-190 2177.9,-154 2302.1,-154 2302.1,-190"/>
<text text-anchor="middle" x="2240" y="-167.8" font-family="Times,serif" font-size="14.00">SidebarComponent</text>
</g>
<!-- SidebarComponent&#45;&gt;SidebarModule -->
<g id="edge20" class="edge">
<title>SidebarComponent&#45;&gt;SidebarModule</title>
<path fill="none" stroke="black" d="M2240,-153.71C2240,-131.79 2240,-98 2240,-98 2240,-98 528.63,-98 528.63,-98"/>
<polygon fill="black" stroke="black" points="528.63,-94.5 518.63,-98 528.63,-101.5 528.63,-94.5"/>
</g>
</g>
</svg>
